<svg width="126" height="22" viewBox="0 0 126 22" fill="none" xmlns="http://www.w3.org/2000/svg">
<path d="M41.5706 17.4584V4.5416H55.7809V7.20981H44.653V9.76017H54.8057V12.2059H44.653V14.7892H56.0252V17.4593L41.5706 17.4584ZM69.3339 17.4584L62.6814 12.2747H60.679V17.4593H57.5098V4.54066H60.679V9.72623H62.6126L68.9858 4.54066H73.4793L65.6073 11L73.8971 17.4584H69.3339ZM81.6295 17.7695C76.1608 17.7695 74.6451 15.8226 74.6451 12.4991V4.5416H77.8501V12.2577C77.8501 14.134 78.3717 15.0485 81.7163 15.0485H82.6916C86.0872 15.0485 86.6267 14.1179 86.6267 12.2577V4.54066H89.7968V12.4981C89.7968 15.8226 88.281 17.7686 82.7784 17.7686H81.6286L81.6295 17.7695ZM91.3691 17.4584V4.5416H102.166C104.917 4.5416 106.38 5.66074 106.38 7.76137C106.38 9.15676 105.736 10.0185 104.378 10.4484V10.621C106.032 10.8793 106.956 12.0682 106.956 13.8587C106.956 16.1497 105.493 17.4593 102.933 17.4593L91.3691 17.4584ZM94.4336 15.1334H101.626C103.193 15.1334 103.716 14.7034 103.716 13.4627C103.716 12.3605 103.193 11.9296 101.626 11.9296H94.4336V15.1334ZM94.4336 9.69134H101.244C102.637 9.69134 103.159 9.29535 103.159 8.34781C103.159 7.27958 102.654 6.86662 101.244 6.86662H94.4336V9.69134ZM117.255 15.0476C120.826 15.0476 122.097 13.9284 122.097 11C122.097 8.07156 120.826 6.95242 117.272 6.95242H116.193C112.623 6.95242 111.369 8.07156 111.369 11C111.369 13.9284 112.658 15.0476 116.175 15.0476H117.255ZM108.077 10.983C108.077 6.60829 110.498 4.23047 116.019 4.23047H117.447C122.968 4.23047 125.389 6.64223 125.389 11C125.389 15.3747 122.985 17.7695 117.447 17.7695H116.019C110.516 17.7695 108.077 15.3229 108.077 10.983Z" fill="#F1F0FA"/>
<path fill-rule="evenodd" clip-rule="evenodd" d="M0.72876 5.07714C0.72876 2.27316 3.01415 0 5.83434 0H29.6598C32.48 0 34.7654 2.27316 34.7654 5.07714V16.9229C34.7654 19.7268 32.48 22 29.6598 22H5.83434C3.01415 22 0.72876 19.7268 0.72876 16.9229V5.07714ZM17.7471 11C17.7471 14.7383 14.6996 17.7695 10.9399 17.7695C7.1803 17.7695 4.1328 14.7383 4.1328 11C4.1328 7.26168 7.17936 4.23048 10.9399 4.23048C14.6996 4.23048 17.7471 7.26168 17.7471 11ZM17.7471 11C17.7471 7.26168 20.7946 4.23048 24.5542 4.23048C28.3138 4.23048 31.3613 7.26168 31.3613 11C31.3613 14.7383 28.3148 17.7695 24.5542 17.7695C20.7946 17.7695 17.7471 14.7383 17.7471 11Z" fill="#F1F0FA"/>
</svg>
