<svg width="108" height="48" viewBox="0 0 108 48" fill="none" xmlns="http://www.w3.org/2000/svg">
<g clip-path="url(#clip0_2_72)">
<path fill-rule="evenodd" clip-rule="evenodd" d="M30.5958 25.6479C30.7947 24.333 30.8726 22.9923 30.9245 21.6688C30.9591 20.8643 31.3051 20.3193 31.9625 19.9301C32.2307 19.7744 32.5161 19.636 32.7929 19.4803C34.0645 18.745 34.3154 17.8194 33.5455 16.5824C33.0957 15.8645 32.6286 15.1552 32.1269 14.4804C31.5041 13.6414 31.4003 12.811 31.8847 11.8594C32.248 11.1501 32.568 10.3975 32.2653 9.50658C32.0663 9.47198 31.8501 9.40277 31.6338 9.40277C30.5612 9.37682 29.4886 9.36817 28.4246 9.35952C26.9108 9.35087 25.8814 8.60696 25.3019 7.24022C25.0942 6.75581 24.9212 6.24545 24.8001 5.72644C24.4022 4.12615 24.0649 2.51721 23.641 0.925572C23.4334 0.155704 22.9057 -0.0951523 22.084 0.043251C21.3833 0.164354 21.2363 0.389259 21.3055 1.31483C21.3401 1.71274 21.4439 2.102 21.4958 2.49991C21.7639 4.48081 22.1705 6.46171 22.257 8.45125C22.3521 10.7522 23.0442 12.8542 24.16 14.7832C24.8261 15.9337 24.9818 16.8679 24.2898 17.9838C23.6843 18.9613 23.3037 20.1723 22.1532 20.648C20.3885 21.3747 18.8228 22.3954 17.3004 23.494C15.5617 24.7482 13.7711 25.9593 12.2314 27.4298C9.65363 29.9038 7.27482 32.5767 4.76626 35.1285C3.16597 36.7634 1.66084 38.4675 0.527661 40.457C0.311406 40.8376 0.147052 41.2615 0.0518994 41.6853C-0.0605533 42.1871 0.0172985 42.7061 0.588212 42.905C1.15913 43.1126 1.57434 42.8791 1.93764 42.3514C3.79744 39.6871 6.2714 37.6716 9.26437 36.4779C12.413 35.2236 15.7174 34.3327 18.9526 33.3033C19.1429 33.2427 19.3938 33.3552 19.7657 33.4071C19.2381 33.7704 18.8401 33.978 18.5201 34.2635C17.8367 34.869 17.0928 35.2582 16.1845 35.4745C13.4511 36.1319 10.709 36.7547 8.17444 38.0955C6.3752 39.047 4.95657 40.3359 3.77149 41.9189C3.26978 42.6023 3.02757 43.424 3.26113 44.2891C5.38043 44.8859 5.57073 44.8081 6.5136 43.0867C6.53091 43.0521 6.56551 43.0175 6.58281 42.9742C7.54298 40.7944 9.46332 39.7564 11.5307 38.9432C12.1968 38.6837 12.9321 38.7183 13.6241 39.0297C13.6846 39.2892 13.7365 39.5055 13.7884 39.7131C14.1085 41.0106 14.4718 42.2303 16.1845 42.2909C16.9804 42.3255 16.9544 43.0694 17.0063 43.6143C17.0669 44.2026 16.9804 44.7821 16.2191 44.9551C15.6569 45.0849 15.06 45.18 14.5583 45.4395C13.9268 45.7682 13.304 46.2181 13.6846 47.1177C13.823 47.1869 13.9355 47.2907 14.0566 47.308C16.0029 47.5761 17.9319 48.0432 19.9214 47.9394C20.6394 47.9048 21.3574 47.9827 22.0667 47.974C22.6895 47.9567 23.3123 47.9221 23.9265 47.827C24.4109 47.7491 24.9126 47.628 25.0077 46.9966C25.0942 46.4084 24.9299 45.9153 24.4368 45.5952C23.9178 45.2579 23.3556 44.9811 22.7933 44.7043C21.5823 44.1074 21.3401 43.7181 21.4525 42.3947C21.4698 42.213 21.5131 42.04 21.539 41.867C21.7293 40.3446 21.539 38.9259 20.2674 37.862C19.6792 37.3689 19.5841 36.7461 19.7657 36.0454C19.9301 35.3966 20.2069 34.7565 20.2501 34.1078C20.3366 32.8794 21.0892 32.3431 22.1272 32.0144C22.3867 31.9366 22.6462 31.8674 22.8971 31.7809C24.0043 31.4262 25.1115 31.0715 26.2188 30.7082C28.71 29.8951 30.1979 28.1824 30.5958 25.6219V25.6479ZM30.5871 16.5392C30.6131 17.534 30.1806 18.1481 29.627 18.1914C29.0733 18.2346 28.39 17.7329 28.3381 17.2572C28.2862 16.7295 29.2723 15.7866 29.9038 15.9077C30.2238 15.9683 30.4574 16.4181 30.5871 16.5392Z" fill="white"/>
<path fill-rule="evenodd" clip-rule="evenodd" d="M22.2483 42.1265C22.2483 42.4552 22.3435 42.8704 22.5511 43.104C23.1825 43.7873 23.8227 44.488 24.5839 45.007C25.2586 45.4655 25.7949 45.8807 25.7603 46.763C25.743 47.1696 25.9766 47.4983 26.3918 47.4637C26.7032 47.4377 27.0924 47.2734 27.2827 47.0312C27.8104 46.3651 27.698 45.4482 27.0232 44.9032C26.4783 44.4621 25.8641 44.0728 25.2326 43.7614C24.3763 43.3462 23.9957 42.7061 23.8573 41.7978C23.6237 40.3186 23.7016 38.9086 24.2465 37.49C24.6617 36.4174 24.9558 35.2928 25.224 34.1683C25.3537 33.632 25.3018 33.0611 25.3364 32.5334C22.3781 31.9798 20.7172 33.5714 20.8556 36.7115C22.43 37.5246 22.5165 37.7062 22.3694 39.4622C22.2916 40.3446 22.2483 41.2355 22.257 42.1179L22.2483 42.1265Z" fill="white"/>
<path fill-rule="evenodd" clip-rule="evenodd" d="M27.5163 8.54641C28.4419 9.16922 29.4885 8.92702 30.5006 8.85781C31.2359 8.80591 31.3483 8.69346 31.184 7.98414C30.9245 6.86827 30.3882 5.90809 29.4712 5.19878C28.4678 4.40296 27.9488 3.37358 27.7931 2.12795C27.7585 1.8252 27.6633 1.52244 27.5595 1.22833C27.2222 0.207607 26.8848 0.0173029 25.5959 0.112455C25.5181 0.276809 25.4402 0.363311 25.4575 0.432513C25.8295 2.83727 26.1842 5.25068 26.6253 7.64679C26.6859 7.99279 27.1616 8.31285 27.5076 8.54641H27.5163Z" fill="white"/>
</g>
<path d="M56.4951 15.9091H52.4894C52.461 15.5777 52.3852 15.277 52.2621 15.0071C52.1437 14.7372 51.978 14.5052 51.765 14.3111C51.5566 14.1122 51.3033 13.9607 51.005 13.8565C50.7067 13.7476 50.3682 13.6932 49.9894 13.6932C49.3265 13.6932 48.7654 13.8542 48.3062 14.1761C47.8516 14.4981 47.506 14.9598 47.2692 15.5611C47.0372 16.1624 46.9212 16.8845 46.9212 17.7273C46.9212 18.6174 47.0396 19.3632 47.2763 19.9645C47.5178 20.5611 47.8658 21.0109 48.3204 21.3139C48.7749 21.6122 49.3218 21.7614 49.961 21.7614C50.3256 21.7614 50.6523 21.7164 50.9411 21.6264C51.2299 21.5317 51.4809 21.3968 51.6939 21.2216C51.907 21.0464 52.0798 20.8357 52.2124 20.5895C52.3497 20.3385 52.442 20.0568 52.4894 19.7443L56.4951 19.7727C56.4477 20.3883 56.2749 21.0156 55.9766 21.6548C55.6783 22.2893 55.2545 22.8764 54.7053 23.4162C54.1608 23.9512 53.4861 24.3821 52.6812 24.7088C51.8762 25.0355 50.9411 25.1989 49.8758 25.1989C48.5405 25.1989 47.3426 24.9124 46.282 24.3395C45.2261 23.7666 44.3904 22.9238 43.7749 21.8111C43.1641 20.6984 42.8587 19.3371 42.8587 17.7273C42.8587 16.108 43.1712 14.7443 43.7962 13.6364C44.4212 12.5237 45.264 11.6832 46.3246 11.1151C47.3852 10.5421 48.5689 10.2557 49.8758 10.2557C50.7943 10.2557 51.6395 10.3812 52.4113 10.6321C53.183 10.883 53.8601 11.25 54.4425 11.733C55.0249 12.2112 55.4937 12.8007 55.8488 13.5014C56.2039 14.2022 56.4193 15.0047 56.4951 15.9091ZM61.6158 25H57.3544L62.1556 10.4545H67.5533L72.3544 25H68.0931L64.9113 14.4602H64.7976L61.6158 25ZM60.8204 19.2614H68.8317V22.2159H60.8204V19.2614ZM77.7042 10.4545V25H73.7554V10.4545H77.7042ZM79.5757 25V10.4545H85.8541C86.9336 10.4545 87.8782 10.651 88.6879 11.044C89.4976 11.437 90.1273 12.0028 90.5771 12.7415C91.0269 13.4801 91.2518 14.3655 91.2518 15.3977C91.2518 16.4394 91.0198 17.3177 90.5558 18.0327C90.0965 18.7476 89.4502 19.2874 88.6169 19.652C87.7883 20.0166 86.82 20.1989 85.712 20.1989H81.962V17.1307H84.9166C85.3806 17.1307 85.776 17.0739 86.1027 16.9602C86.4341 16.8419 86.6874 16.6548 86.8626 16.3991C87.0425 16.1435 87.1325 15.8097 87.1325 15.3977C87.1325 14.9811 87.0425 14.6425 86.8626 14.3821C86.6874 14.117 86.4341 13.9228 86.1027 13.7997C85.776 13.6719 85.3806 13.608 84.9166 13.608H83.5245V25H79.5757ZM88.0984 18.3239L91.7348 25H87.445L83.8939 18.3239H88.0984ZM107.026 17.7273C107.026 19.3466 106.711 20.7126 106.081 21.8253C105.452 22.9332 104.602 23.7737 103.532 24.3466C102.462 24.9148 101.268 25.1989 99.9521 25.1989C98.6263 25.1989 97.4284 24.9124 96.3584 24.3395C95.293 23.7618 94.4455 22.919 93.8157 21.8111C93.1907 20.6984 92.8782 19.3371 92.8782 17.7273C92.8782 16.108 93.1907 14.7443 93.8157 13.6364C94.4455 12.5237 95.293 11.6832 96.3584 11.1151C97.4284 10.5421 98.6263 10.2557 99.9521 10.2557C101.268 10.2557 102.462 10.5421 103.532 11.1151C104.602 11.6832 105.452 12.5237 106.081 13.6364C106.711 14.7443 107.026 16.108 107.026 17.7273ZM102.963 17.7273C102.963 16.8561 102.847 16.1222 102.615 15.5256C102.388 14.9242 102.05 14.4697 101.6 14.1619C101.155 13.8494 100.606 13.6932 99.9521 13.6932C99.2987 13.6932 98.7471 13.8494 98.2973 14.1619C97.8522 14.4697 97.5137 14.9242 97.2816 15.5256C97.0544 16.1222 96.9407 16.8561 96.9407 17.7273C96.9407 18.5985 97.0544 19.3348 97.2816 19.9361C97.5137 20.5327 97.8522 20.9872 98.2973 21.2997C98.7471 21.6075 99.2987 21.7614 99.9521 21.7614C100.606 21.7614 101.155 21.6075 101.6 21.2997C102.05 20.9872 102.388 20.5327 102.615 19.9361C102.847 19.3348 102.963 18.5985 102.963 17.7273ZM50.7564 35C50.7186 34.5265 50.541 34.1572 50.2238 33.892C49.9113 33.6269 49.4354 33.4943 48.7962 33.4943C48.389 33.4943 48.0552 33.544 47.7948 33.6435C47.5391 33.7382 47.3497 33.8684 47.2266 34.0341C47.1035 34.1998 47.0396 34.3892 47.0348 34.6023C47.0254 34.7775 47.0562 34.9361 47.1272 35.0781C47.2029 35.2154 47.3213 35.3409 47.4823 35.4545C47.6433 35.5634 47.8492 35.6629 48.1002 35.7528C48.3511 35.8428 48.6494 35.9233 48.9951 35.9943L50.1883 36.25C50.9932 36.4205 51.6821 36.6454 52.255 36.9247C52.8279 37.2041 53.2967 37.5331 53.6613 37.9119C54.0258 38.286 54.2934 38.7074 54.4638 39.1761C54.639 39.6449 54.729 40.1562 54.7337 40.7102C54.729 41.6667 54.4899 42.4763 54.0164 43.1392C53.5429 43.8021 52.8658 44.3063 51.9851 44.652C51.1092 44.9976 50.0557 45.1705 48.8246 45.1705C47.5604 45.1705 46.4572 44.9834 45.515 44.6094C44.5775 44.2353 43.8483 43.66 43.3275 42.8835C42.8114 42.1023 42.5509 41.1032 42.5462 39.8864H46.2962C46.3199 40.3314 46.4312 40.7055 46.63 41.0085C46.8289 41.3116 47.1082 41.5412 47.4681 41.6974C47.8327 41.8537 48.2659 41.9318 48.7678 41.9318C49.1892 41.9318 49.5419 41.8797 49.826 41.7756C50.1101 41.6714 50.3256 41.527 50.4723 41.3423C50.6191 41.1577 50.6949 40.947 50.6996 40.7102C50.6949 40.4877 50.6215 40.2936 50.4794 40.1278C50.3421 39.9574 50.1149 39.8059 49.7976 39.6733C49.4804 39.536 49.0519 39.4081 48.5121 39.2898L47.0633 38.9773C45.7754 38.6979 44.7598 38.2315 44.0164 37.5781C43.2777 36.92 42.9108 36.0227 42.9155 34.8864C42.9108 33.9631 43.157 33.1558 43.6542 32.4645C44.1561 31.7685 44.8497 31.2263 45.7351 30.8381C46.6253 30.4498 47.6456 30.2557 48.7962 30.2557C49.9705 30.2557 50.9861 30.4522 51.8431 30.8452C52.7001 31.2382 53.3606 31.7921 53.8246 32.5071C54.2934 33.2173 54.5301 34.0483 54.5348 35H50.7564ZM59.929 45L55.6392 30.4545H60.0427L62.0313 39.4034H62.1449L64.5029 30.4545H67.9688L70.3267 39.4318H70.4404L72.429 30.4545H76.8324L72.5427 45H68.7642L66.2927 36.875H66.179L63.7074 45H59.929ZM80.19 45H75.9287L80.7298 30.4545H86.1275L90.9287 45H86.6673L83.4855 34.4602H83.3718L80.19 45ZM79.3946 39.2614H87.4059V42.2159H79.3946V39.2614ZM92.3296 45V30.4545H98.608C99.6875 30.4545 100.632 30.6676 101.442 31.0938C102.251 31.5199 102.881 32.1188 103.331 32.8906C103.781 33.6624 104.006 34.5644 104.006 35.5966C104.006 36.6383 103.774 37.5402 103.31 38.3026C102.85 39.0649 102.204 39.652 101.371 40.0639C100.542 40.4759 99.5739 40.6818 98.466 40.6818H94.716V37.6136H97.6705C98.1345 37.6136 98.5299 37.5331 98.8566 37.3722C99.188 37.2064 99.4413 36.9721 99.6165 36.669C99.7964 36.366 99.8864 36.0085 99.8864 35.5966C99.8864 35.1799 99.7964 34.8248 99.6165 34.5312C99.4413 34.233 99.188 34.0057 98.8566 33.8494C98.5299 33.6884 98.1345 33.608 97.6705 33.608H96.2785V45H92.3296Z" fill="white"/>
<defs>
<clipPath id="clip0_2_72">
<rect width="33.978" height="48" fill="white"/>
</clipPath>
</defs>
</svg>
