<svg width="115" height="28" viewBox="0 0 115 28" fill="none" xmlns="http://www.w3.org/2000/svg">
<g clip-path="url(#clip0_2453_7171)">
<mask id="mask0_2453_7171" style="mask-type:luminance" maskUnits="userSpaceOnUse" x="0" y="0" width="115" height="28">
<path d="M114.179 0.735352H0.504517V27.2645H114.179V0.735352Z" fill="white"/>
</mask>
<g mask="url(#mask0_2453_7171)">
<path d="M19.8417 7.7373C17.1238 7.7373 14.8757 8.8128 13.6138 10.6998C13.1505 9.84821 12.5033 9.16744 11.6867 8.67435C10.6565 8.05312 9.37263 7.7373 7.86741 7.7373C5.70863 7.7373 3.87082 8.34041 2.52093 9.4845V8.83225C2.52093 8.2822 2.0783 7.85122 1.51272 7.85122C0.947144 7.85122 0.504517 8.2822 0.504517 8.83225L0.509694 9.22049V21.5274C0.509694 22.0774 0.952321 22.5084 1.5179 22.5084C2.08348 22.5084 2.52611 22.0774 2.52611 21.5274V12.2904C3.4049 10.683 5.43943 9.64757 7.72505 9.64757C9.35318 9.64757 10.5245 10.0307 11.3062 10.8189C12.084 11.6019 12.4788 12.8327 12.4788 14.4751V21.5235C12.4788 22.0735 12.9214 22.5045 13.4869 22.5045C14.0525 22.5045 14.4952 22.0735 14.4952 21.5235V14.444C14.4952 12.9104 15.0685 11.6472 16.1544 10.7917C17.0785 10.0631 18.3688 9.64499 19.6941 9.64499C21.3223 9.64499 22.4935 10.0281 23.2765 10.8163C24.0544 11.5993 24.4492 12.8301 24.4492 14.4725V21.5209C24.4492 22.0709 24.8918 22.5019 25.4573 22.5019C26.0229 22.5019 26.4655 22.0709 26.4655 21.5209V14.3586C26.4655 12.3616 25.8715 10.6972 24.7455 9.54537C23.5924 8.36502 21.8969 7.73988 19.8417 7.73988V7.7373Z" fill="white"/>
<path d="M42.0896 7.85547C41.8993 7.85547 41.7311 7.89688 41.5874 7.97712C41.4334 8.0651 41.3078 8.19839 41.2134 8.37317L35.8242 19.6356L30.5347 8.45599C30.3548 8.03275 30.0182 7.90594 29.7931 7.86969L29.7749 7.85156H29.6145C29.0735 7.85156 28.6334 8.27864 28.6334 8.80415C28.6334 8.96589 28.6774 9.08238 28.7034 9.15356L28.7253 9.2131L34.7707 21.8306L34.4096 22.5942C33.5865 24.3233 32.5976 25.2551 31.4742 25.3638C30.9618 25.4117 30.589 25.8116 30.589 26.3151C30.589 26.8185 31.029 27.2676 31.5726 27.2676C31.6361 27.2676 31.7849 27.2676 31.9337 27.234C33.7107 26.9337 35.1473 25.6369 36.2047 23.3811L42.9632 9.24412C42.9955 9.18591 43.0214 9.11473 43.0408 9.03449C43.0538 8.98011 43.0693 8.89729 43.0693 8.80798C43.0693 8.28254 42.6293 7.85547 42.0883 7.85547H42.0896Z" fill="white"/>
<path d="M79.5863 7.85059C79.0875 7.85059 78.7551 8.19616 78.6564 8.51198L75.0989 19.0004L71.6524 8.5948C71.6524 8.5948 71.6511 8.59089 71.6498 8.58831L71.6381 8.55081C71.4776 8.11077 71.1269 7.85059 70.692 7.85059C70.2572 7.85059 69.8741 8.13795 69.7304 8.59612L66.2839 19.0004L62.7286 8.51713C62.6302 8.19616 62.2964 7.85059 61.798 7.85059C61.2571 7.85059 60.817 8.27773 60.817 8.80708C60.817 8.83943 60.817 8.88209 60.8235 8.93131C60.83 8.98304 60.843 9.03484 60.8662 9.10211L65.3611 21.9604L65.3663 21.9746C65.4388 22.1623 65.5488 22.3137 65.6924 22.4237C65.8568 22.5505 66.0638 22.6178 66.2891 22.6178C66.7265 22.6178 67.0928 22.3486 67.2455 21.9125L70.692 11.5081L74.1386 21.9125C74.2965 22.3473 74.6642 22.6178 75.096 22.6178C75.3193 22.6178 75.5248 22.5505 75.6891 22.425C75.8343 22.3137 75.9456 22.1623 76.0178 21.9758L80.5206 9.0918C80.5398 9.02835 80.553 8.97921 80.5589 8.93131C80.5656 8.88209 80.567 8.84068 80.567 8.8045C80.567 8.27899 80.1271 7.85191 79.5863 7.85191V7.85059Z" fill="white"/>
<path d="M95.8191 7.85212C95.2532 7.85212 94.8111 8.2831 94.8111 8.83315V9.38321C93.5673 8.31935 91.846 7.73828 89.9096 7.73828C87.9732 7.73828 85.9844 8.51219 84.5284 9.91646C83.0577 11.335 82.2487 13.2129 82.2487 15.206C82.2487 19.3398 85.6853 22.7021 89.9096 22.7021C91.8725 22.7021 93.557 22.1353 94.8111 21.0572V21.5244C94.8111 22.0745 95.2532 22.5055 95.8191 22.5055C96.385 22.5055 96.8271 22.0745 96.8271 21.5244V8.8319C96.8271 8.28185 96.385 7.85087 95.8191 7.85087V7.85212ZM94.8111 12.2564V18.2125C93.9527 19.7824 92.0361 20.7945 89.9096 20.7945C86.8672 20.7945 84.2963 18.2344 84.2963 15.2047C84.2963 12.1749 86.8672 9.64206 89.9096 9.64206C92.0428 9.64206 93.9608 10.6658 94.8111 12.2551V12.2564Z" fill="white"/>
<path d="M111.898 9.92678C110.438 8.51477 108.528 7.73828 106.518 7.73828C104.508 7.73828 102.861 8.31935 101.617 9.38321V8.83315C101.617 8.2831 101.174 7.85212 100.609 7.85212C100.043 7.85212 99.6002 8.2831 99.6002 8.83315V26.2341C99.6002 26.7842 100.043 27.2152 100.609 27.2152C101.174 27.2152 101.617 26.7842 101.617 26.2341V21.0572C102.861 22.1211 104.582 22.7021 106.518 22.7021C110.743 22.7021 114.179 19.3398 114.179 15.206C114.179 13.2232 113.369 11.3492 111.898 9.92678ZM112.131 15.206C112.131 16.6827 111.544 18.0818 110.476 19.1456C109.408 20.2095 108.002 20.7958 106.518 20.7958C104.363 20.7958 102.447 19.785 101.617 18.2163V12.2538C102.437 10.6671 104.354 9.64339 106.518 9.64339C109.561 9.64339 112.131 12.1904 112.131 15.206Z" fill="white"/>
<path d="M45.6104 23.5149C45.3011 23.5149 44.9969 23.4877 44.6992 23.4307C44.1415 23.3246 43.7738 22.7836 43.88 22.2206C43.9848 21.6589 44.522 21.2888 45.0811 21.3949C45.9909 21.567 47.0509 21.2823 48.0668 20.5899C49.079 19.9014 49.9008 18.9022 50.3201 17.8487C50.9672 16.2257 50.9802 15.2874 50.9957 13.988C51.0048 13.3008 51.0151 12.5216 51.116 11.5341C51.2299 10.4224 51.4461 8.76321 52.0078 7.19587C52.5863 5.58067 53.4263 4.29678 54.5755 3.27305C56.0574 1.95164 58.1256 1.07673 60.5562 0.746702C61.1192 0.670345 61.6369 1.06768 61.712 1.63455C61.7883 2.20142 61.3936 2.723 60.8306 2.79936C59.4186 2.9922 57.4229 3.49954 55.937 4.82484C53.9323 6.61087 53.4081 9.32749 53.1609 11.749C53.069 12.6433 53.0587 13.3422 53.0509 14.0165C53.0328 15.4246 53.0173 16.6412 52.2265 18.6227C51.657 20.0489 50.5608 21.3923 49.2174 22.3061C48.0526 23.0994 46.8011 23.5149 45.6117 23.5149H45.6104Z" fill="url(#paint0_linear_2453_7171)"/>
</g>
</g>
<defs>
<linearGradient id="paint0_linear_2453_7171" x1="60.2933" y1="-0.790506" x2="41.7378" y2="23.9943" gradientUnits="userSpaceOnUse">
<stop stop-color="#68ECF2"/>
<stop offset="1" stop-color="#3C4EAC"/>
</linearGradient>
<clipPath id="clip0_2453_7171">
<rect width="114.211" height="28" fill="white" transform="translate(0.50061)"/>
</clipPath>
</defs>
</svg>
